<svg width="18" height="19" viewBox="0 0 18 19" fill="none" xmlns="http://www.w3.org/2000/svg">
<path d="M14.25 3.5H0.75C0.551088 3.5 0.360322 3.57902 0.21967 3.71967C0.0790178 3.86032 0 4.05109 0 4.25V17.75C0 17.9489 0.0790178 18.1397 0.21967 18.2803C0.360322 18.421 0.551088 18.5 0.75 18.5H14.25C14.4489 18.5 14.6397 18.421 14.7803 18.2803C14.921 18.1397 15 17.9489 15 17.75V4.25C15 4.05109 14.921 3.86032 14.7803 3.71967C14.6397 3.57902 14.4489 3.5 14.25 3.5ZM13.5 17H1.5V5H13.5V17ZM18 1.25V14.75C18 14.9489 17.921 15.1397 17.7803 15.2803C17.6397 15.421 17.4489 15.5 17.25 15.5C17.0511 15.5 16.8603 15.421 16.7197 15.2803C16.579 15.1397 16.5 14.9489 16.5 14.75V2H3.75C3.55109 2 3.36032 1.92098 3.21967 1.78033C3.07902 1.63968 3 1.44891 3 1.25C3 1.05109 3.07902 0.860322 3.21967 0.71967C3.36032 0.579018 3.55109 0.5 3.75 0.5H17.25C17.4489 0.5 17.6397 0.579018 17.7803 0.71967C17.921 0.860322 18 1.05109 18 1.25Z" fill="#1B2816"/>
</svg>
