<svg width="40" height="40" viewBox="0 0 40 40" fill="none" xmlns="http://www.w3.org/2000/svg">
<rect x="0.5" y="0.5" width="39" height="39" rx="19.5" stroke="#FFF8E8"/>
<path d="M29.75 19.9999C29.7469 22.3828 28.8726 24.6824 27.2917 26.4655C25.7109 28.2485 23.5326 29.392 21.1671 29.6805C21.1145 29.6864 21.0611 29.6812 21.0107 29.665C20.9602 29.6489 20.9137 29.6222 20.8743 29.5868C20.8348 29.5513 20.8034 29.5079 20.782 29.4594C20.7605 29.411 20.7496 29.3585 20.75 29.3055V22.2499H23C23.1028 22.2501 23.2045 22.2292 23.2989 22.1884C23.3933 22.1476 23.4783 22.0879 23.5487 22.0129C23.619 21.9379 23.6732 21.8493 23.7078 21.7525C23.7424 21.6557 23.7568 21.5528 23.75 21.4502C23.7334 21.2573 23.6444 21.0779 23.5009 20.9479C23.3574 20.818 23.1701 20.7472 22.9765 20.7499H20.75V18.4999C20.75 18.102 20.908 17.7205 21.1893 17.4392C21.4706 17.1579 21.8521 16.9999 22.25 16.9999H23.75C23.8528 17.0001 23.9545 16.9792 24.0489 16.9384C24.1433 16.8976 24.2283 16.8379 24.2987 16.7629C24.369 16.6879 24.4232 16.5993 24.4578 16.5025C24.4924 16.4057 24.5068 16.3028 24.5 16.2002C24.4834 16.007 24.3941 15.8273 24.2502 15.6973C24.1063 15.5673 23.9185 15.4968 23.7246 15.4999H22.25C21.4543 15.4999 20.6912 15.8159 20.1286 16.3785C19.566 16.9411 19.25 17.7042 19.25 18.4999V20.7499H17C16.8971 20.7496 16.7954 20.7705 16.701 20.8113C16.6066 20.8521 16.5216 20.9118 16.4513 20.9868C16.3809 21.0618 16.3268 21.1504 16.2921 21.2472C16.2575 21.3441 16.2431 21.447 16.25 21.5495C16.2665 21.7427 16.3558 21.9224 16.4997 22.0524C16.6436 22.1824 16.8314 22.2529 17.0253 22.2499H19.25V29.3074C19.2503 29.3603 19.2394 29.4127 19.218 29.4611C19.1967 29.5095 19.1653 29.5528 19.126 29.5882C19.0866 29.6237 19.0403 29.6504 18.9899 29.6666C18.9395 29.6828 18.8863 29.6882 18.8337 29.6824C16.405 29.3866 14.1758 28.1898 12.5874 26.3288C10.999 24.4678 10.1672 22.0783 10.2565 19.6333C10.444 14.5708 14.5446 10.4552 19.6109 10.2583C20.9225 10.2075 22.231 10.4217 23.4579 10.8883C24.6848 11.3548 25.8051 12.064 26.7516 12.9734C27.6981 13.8828 28.4515 14.9738 28.9667 16.1811C29.4819 17.3884 29.7483 18.6872 29.75 19.9999Z" fill="#FFF8E8"/>
</svg>
